<svg xmlns="http://www.w3.org/2000/svg" xml:space="preserve" viewBox="0 0 612 612">
  <path d="M577.7 612H34.3a18.8 18.8 0 0 1-18.7-18.8V18.8C15.6 8.4 24 0 34.3 0h543.4c10.3 0 18.7 8.4 18.7 18.8v574.4c0 10.4-8.4 18.8-18.7 18.8zM53 574.5h505.8v-537H53.1v537z"/>
  <path d="M477 157.6H135a18.8 18.8 0 1 1 0-37.5h342a18.8 18.8 0 0 1 0 37.5zM477 269H135a18.8 18.8 0 1 1 0-37.5h342a18.8 18.8 0 0 1 0 37.5zM477 380.5H135a18.8 18.8 0 1 1 0-37.5h342a18.8 18.8 0 0 1 0 37.5zM278.2 492H135a18.8 18.8 0 1 1 0-37.6h143.2a18.8 18.8 0 0 1 0 37.5z"/>
</svg>